<svg xmlns="http://www.w3.org/2000/svg" viewBox="0 0 256 256">
  <rect width="256" height="256" fill="#ffffff"/>
  <path d="M128 40 L135 80 L145 75 L155 95 L165 85 L170 110 L175 105 L178 125 L165 130 L170 145 L155 140 L150 155 L140 145 L135 165 L128 150 L121 165 L116 145 L106 155 L101 140 L86 145 L91 130 L78 125 L81 105 L86 110 L91 85 L101 95 L111 75 L121 80 Z" fill="#1a5f3a" opacity="0.15"/>
  <path d="M128 50 C128 50 140 70 145 85 C148 95 150 105 148 115 L160 110 C160 110 165 95 168 85 C170 78 172 70 170 65 C175 68 178 75 178 85 C178 95 175 110 170 120 L180 125 C185 115 188 100 188 90 C188 75 182 65 175 60 C180 62 185 70 185 82 C185 95 180 115 172 130 L155 138 C158 145 158 155 155 165 C152 175 145 185 140 195 L128 175 C130 165 130 155 128 145 C126 155 126 165 128 175 L116 195 C111 185 104 175 101 165 C98 155 98 145 101 138 L84 130 C76 115 71 95 71 82 C71 70 76 62 81 60 C74 65 68 75 68 90 C68 100 71 115 76 125 L86 120 C81 110 78 95 78 85 C78 75 81 68 86 65 C84 70 86 78 88 85 C91 95 96 110 96 110 L108 115 C106 105 108 95 111 85 C116 70 128 50 128 50 Z" fill="#1a5f3a"/>
  <rect x="108" y="88" width="40" height="80" fill="#ffffff" rx="4"/>
  <rect x="88" y="108" width="80" height="40" fill="#ffffff" rx="4"/>
</svg>